{
	"asset":{
		"generator":"Khronos glTF Blender I/O v4.1.62",
		"version":"2.0"
	},
	"scene":0,
	"scenes":[
		{
			"name":"Scene",
			"nodes":[
				14
			]
		}
	],
	"nodes":[
		{
			"name":"Bone.016",
			"rotation":[
				0.006857064086943865,
				-8.280438557051184e-09,
				-0.007023950107395649,
				0.9999518394470215
			],
			"scale":[
				1.0000001192092896,
				1,
				1
			],
			"translation":[
				-4.377216100692749e-08,
				1.7673197984695435,
				-2.3283064365386963e-08
			]
		},
		{
			"children":[
				0
			],
			"name":"Bone.012",
			"rotation":[
				0.5971545577049255,
				0.00021340136299841106,
				0.0035624541342258453,
				0.8021182417869568
			],
			"scale":[
				1,
				1.0000001192092896,
				1
			],
			"translation":[
				9.502400644123554e-08,
				0.9409413933753967,
				-7.450580596923828e-08
			]
		},
		{
			"children":[
				1
			],
			"name":"Bone.002",
			"rotation":[
				-0.5555597543716431,
				0.300173819065094,
				0.22474439442157745,
				0.7421179413795471
			],
			"scale":[
				1,
				1.0000001192092896,
				1
			],
			"translation":[
				-5.820766091346741e-11,
				1,
				0
			]
		},
		{
			"name":"Bone.017",
			"rotation":[
				-0.006849048659205437,
				-1.5707730227632055e-08,
				-0.007031733635812998,
				0.9999518394470215
			],
			"translation":[
				4.6566128730773926e-09,
				1.7673197984695435,
				-1.210719347000122e-08
			]
		},
		{
			"children":[
				3
			],
			"name":"Bone.013",
			"rotation":[
				0.6032543778419495,
				0.0002026808651862666,
				0.003550314111635089,
				0.7975409030914307
			],
			"translation":[
				-8.614733815193176e-09,
				0.9628760814666748,
				-2.9802322387695312e-08
			]
		},
		{
			"children":[
				4
			],
			"name":"Bone.005",
			"rotation":[
				-0.5563493371009827,
				-0.30267107486724854,
				-0.22764156758785248,
				0.7396249175071716
			],
			"scale":[
				0.9999999403953552,
				1,
				1
			],
			"translation":[
				-5.820766091346741e-11,
				1,
				0
			]
		},
		{
			"name":"Bone.018",
			"rotation":[
				-4.767893915413879e-05,
				-4.2774843223014614e-08,
				-0.009815937839448452,
				0.9999518394470215
			],
			"scale":[
				0.9999999403953552,
				0.9999999403953552,
				0.9999999403953552
			],
			"translation":[
				-2.3283064365386963e-09,
				1.7673205137252808,
				-1.446460373699665e-08
			]
		},
		{
			"children":[
				6
			],
			"name":"Bone.014",
			"rotation":[
				-0.420864075422287,
				-0.0002174541587010026,
				0.4258349537849426,
				0.8009606599807739
			],
			"scale":[
				0.9999999403953552,
				1.0000001192092896,
				0.9999999403953552
			],
			"translation":[
				1.4901161193847656e-07,
				0.9261558651924133,
				1.341104507446289e-07
			]
		},
		{
			"children":[
				7
			],
			"name":"Bone.006",
			"rotation":[
				0.4219002425670624,
				-0.00011152016668347642,
				-0.4217416048049927,
				0.8025797009468079
			],
			"scale":[
				0.9999998211860657,
				0.9999998807907104,
				0.9999998807907104
			],
			"translation":[
				-5.820766091346741e-11,
				1,
				0
			]
		},
		{
			"name":"Bone.019",
			"rotation":[
				-4.83955918753054e-05,
				-4.0997235828399425e-08,
				-0.009815927594900131,
				0.9999518394470215
			],
			"scale":[
				1,
				0.9999999403953552,
				1
			],
			"translation":[
				-6.752088665962219e-08,
				1.767320156097412,
				1.8226273823529482e-08
			]
		},
		{
			"children":[
				9
			],
			"name":"Bone.015",
			"rotation":[
				-0.4293254315853119,
				-0.00022728260955773294,
				-0.4095732867717743,
				0.8049405813217163
			],
			"scale":[
				1.0000001192092896,
				1.0000001192092896,
				1
			],
			"translation":[
				1.341104507446289e-07,
				0.9116439819335938,
				8.940696716308594e-08
			]
		},
		{
			"children":[
				10
			],
			"name":"Bone.007",
			"rotation":[
				0.4283187687397003,
				-0.00011563159932848066,
				0.4137091040611267,
				0.8033603429794312
			],
			"scale":[
				0.9999998807907104,
				0.9999999403953552,
				0.9999998807907104
			],
			"translation":[
				-5.820766091346741e-11,
				1,
				0
			]
		},
		{
			"children":[
				2,
				5,
				8,
				11
			],
			"name":"Bone"
		},
		{
			"mesh":0,
			"name":"Cube",
			"skin":0
		},
		{
			"children":[
				13,
				12
			],
			"name":"Armature",
			"rotation":[
				0,
				0,
				0.9999997019767761,
				0.000769452250096947
			],
			"translation":[
				0,
				0.22712431848049164,
				0
			]
		}
	],
	"materials":[
		{
			"doubleSided":true,
			"name":"Material.001",
			"normalTexture":{
				"index":0
			},
			"pbrMetallicRoughness":{
				"baseColorTexture":{
					"index":1
				},
				"metallicRoughnessTexture":{
					"index":2
				}
			}
		}
	],
	"meshes":[
		{
			"name":"Cube.001",
			"primitives":[
				{
					"attributes":{
						"POSITION":0,
						"NORMAL":1,
						"TEXCOORD_0":2,
						"JOINTS_0":3,
						"WEIGHTS_0":4
					},
					"indices":5,
					"material":0
				}
			]
		}
	],
	"textures":[
		{
			"sampler":0,
			"source":0
		},
		{
			"sampler":0,
			"source":1
		},
		{
			"sampler":0,
			"source":2
		}
	],
	"images":[
		{
			"mimeType":"image/png",
			"name":"aerial_rocks_04_nor_gl_4k",
			"uri":"aerial_rocks_04_nor_gl_4k.png"
		},
		{
			"mimeType":"image/jpeg",
			"name":"aerial_rocks_04_diff_4k",
			"uri":"aerial_rocks_04_diff_4k.jpg"
		},
		{
			"mimeType":"image/png",
			"name":"aerial_rocks_04_rough_4k",
			"uri":"aerial_rocks_04_rough_4k.png"
		}
	],
	"skins":[
		{
			"inverseBindMatrices":6,
			"joints":[
				12,
				2,
				1,
				0,
				5,
				4,
				3,
				8,
				7,
				6,
				11,
				10,
				9
			],
			"name":"Armature"
		}
	],
	"accessors":[
		{
			"bufferView":0,
			"componentType":5126,
			"count":14630,
			"max":[
				2.1505584716796875,
				1.4346363544464111,
				1.1563518047332764
			],
			"min":[
				-1.2828259468078613,
				-3.864642381668091,
				-1.1661756038665771
			],
			"type":"VEC3"
		},
		{
			"bufferView":1,
			"componentType":5126,
			"count":14630,
			"type":"VEC3"
		},
		{
			"bufferView":2,
			"componentType":5126,
			"count":14630,
			"type":"VEC2"
		},
		{
			"bufferView":3,
			"componentType":5121,
			"count":14630,
			"type":"VEC4"
		},
		{
			"bufferView":4,
			"componentType":5126,
			"count":14630,
			"type":"VEC4"
		},
		{
			"bufferView":5,
			"componentType":5123,
			"count":22272,
			"type":"SCALAR"
		},
		{
			"bufferView":6,
			"componentType":5126,
			"count":13,
			"type":"MAT4"
		}
	],
	"bufferViews":[
		{
			"buffer":0,
			"byteLength":175560,
			"byteOffset":0,
			"target":34962
		},
		{
			"buffer":0,
			"byteLength":175560,
			"byteOffset":175560,
			"target":34962
		},
		{
			"buffer":0,
			"byteLength":117040,
			"byteOffset":351120,
			"target":34962
		},
		{
			"buffer":0,
			"byteLength":58520,
			"byteOffset":468160,
			"target":34962
		},
		{
			"buffer":0,
			"byteLength":234080,
			"byteOffset":526680,
			"target":34962
		},
		{
			"buffer":0,
			"byteLength":44544,
			"byteOffset":760760,
			"target":34963
		},
		{
			"buffer":0,
			"byteLength":832,
			"byteOffset":805304
		}
	],
	"samplers":[
		{
			"magFilter":9729,
			"minFilter":9987
		}
	],
	"buffers":[
		{
			"byteLength":806136,
			"uri":"squid.bin"
		}
	]
}
